HIERARCHY
ROOT Hips
{
	OFFSET -0.001795 -0.223333 0.028219
	CHANNELS 6 Xposition Yposition Zposition Zrotation Yrotation Xrotation 
	JOINT LeftUpLeg
	{
		OFFSET 0.069520 -0.091406 -0.006815
		CHANNELS 3 Zrotation Yrotation Xrotation
		JOINT LeftLeg
		{
			OFFSET 0.034277 -0.375199 -0.004496
			CHANNELS 3 Zrotation Yrotation Xrotation
			JOINT LeftFoot
			{
				OFFSET -0.013596 -0.397961 -0.043693
				CHANNELS 3 Zrotation Yrotation Xrotation
				JOINT LeftToe
				{
					OFFSET 0.026358 -0.055791 0.119288
					CHANNELS 3 Zrotation Yrotation Xrotation
					End Site
					{
						OFFSET 0.000000 0.000000 0.000000
					}
				}
			}
		}
	}
	JOINT RightUpLeg
	{
		OFFSET -0.067670 -0.090522 -0.004320
		CHANNELS 3 Zrotation Yrotation Xrotation
		JOINT RightLeg
		{
			OFFSET -0.038290 -0.382569 -0.008850
			CHANNELS 3 Zrotation Yrotation Xrotation
			JOINT RightFoot
			{
				OFFSET 0.015774 -0.398415 -0.042312
				CHANNELS 3 Zrotation Yrotation Xrotation
				JOINT RightToe
				{
					OFFSET -0.025372 -0.048144 0.123348
					CHANNELS 3 Zrotation Yrotation Xrotation
					End Site
					{
						OFFSET 0.000000 0.000000 0.000000
					}
				}
			}
		}
	}
	JOINT Spine
	{
		OFFSET -0.002533 0.108963 -0.026696
		CHANNELS 3 Zrotation Yrotation Xrotation
		JOINT Spine1
		{
			OFFSET 0.005487 0.135180 0.001092
			CHANNELS 3 Zrotation Yrotation Xrotation
			JOINT Spine2
			{
				OFFSET 0.001457 0.052922 0.025425
				CHANNELS 3 Zrotation Yrotation Xrotation
				JOINT Neck
				{
					OFFSET -0.002778 0.213870 -0.042857
					CHANNELS 3 Zrotation Yrotation Xrotation
					JOINT Head
					{
						OFFSET 0.005152 0.064970 0.051349
						CHANNELS 3 Zrotation Yrotation Xrotation
						End Site
						{
							OFFSET 0.000000 0.000000 0.000000
						}
					}
				}
				JOINT LeftShoulder
				{
					OFFSET 0.078845 0.121749 -0.034090
					CHANNELS 3 Zrotation Yrotation Xrotation
					JOINT LeftArm
					{
						OFFSET 0.090977 0.030469 -0.008868
						CHANNELS 3 Zrotation Yrotation Xrotation
						JOINT LeftForeArm
						{
							OFFSET 0.259612 -0.012772 -0.027456
							CHANNELS 3 Zrotation Yrotation Xrotation
							JOINT LeftHand
							{
								OFFSET 0.249234 0.008986 -0.001171
								CHANNELS 3 Zrotation Yrotation Xrotation
								End Site
								{
									OFFSET 0.000000 0.000000 0.000000
								}
							}
						}
					}
				}
				JOINT RightShoulder
				{
					OFFSET -0.081759 0.118833 -0.038615
					CHANNELS 3 Zrotation Yrotation Xrotation
					JOINT RightArm
					{
						OFFSET -0.096012 0.032551 -0.009143
						CHANNELS 3 Zrotation Yrotation Xrotation
						JOINT RightForeArm
						{
							OFFSET -0.253742 -0.013329 -0.021401
							CHANNELS 3 Zrotation Yrotation Xrotation
							JOINT RightHand
							{
								OFFSET -0.255298 0.007772 -0.005559
								CHANNELS 3 Zrotation Yrotation Xrotation
								End Site
								{
									OFFSET 0.000000 0.000000 0.000000
								}
							}
						}
					}
				}
			}
		}
	}
}
MOTION
Frames: 12
Frame Time: 0.050000
0.008479 0.949795 -0.012159 -0.540637 -3.996652 1.763371 5.870293 0.191440 5.182543 -5.420813 0.557247 -7.040319 8.592922 18.138872 18.093900 0.000000 0.000000 0.000000 -4.642953 0.019664 2.680695 3.475029 -0.365282 -3.779257 -2.980602 -12.020772 16.569385 0.000000 0.000000 0.000000 -1.210609 -0.097262 3.873778 4.216705 -0.377742 -25.224845 -0.715875 0.147080 30.364960 1.801374 1.023876 -38.436084 0.000000 0.000000 0.000000 -31.408310 4.823863 -4.353497 -44.998319 -7.801796 -5.201876 -13.795169 -27.181624 4.939844 0.000000 0.000000 0.000000 20.777339 3.519088 0.134757 52.624380 5.233732 -5.362034 5.938753 26.431252 2.374302 0.000000 0.000000 0.000000 
0.009459 0.949748 -0.011909 -0.462994 -4.136305 1.707158 5.568933 0.215090 5.280445 -5.186757 0.545575 -7.058143 8.677074 18.244439 18.092030 0.000000 0.000000 0.000000 -4.606917 0.023957 2.585033 3.113803 -0.339486 -3.524166 -2.950631 -11.973192 16.461880 0.000000 0.000000 0.000000 -1.124930 -0.108260 4.108062 4.252367 -0.378236 -25.356456 -0.917831 -0.304952 30.471126 1.387795 1.113399 -38.360403 0.000000 0.000000 0.000000 -31.417894 4.457089 -3.839787 -45.059133 -8.063321 -5.211980 -13.391952 -27.631196 4.960618 0.000000 0.000000 0.000000 20.972525 3.600423 0.001449 52.441002 4.801607 -5.504877 5.810954 26.425707 2.315726 0.000000 0.000000 0.000000 
0.010261 0.949519 -0.011569 -0.368564 -4.253256 1.586124 5.418655 0.230541 5.354136 -5.221270 0.550880 -6.901579 8.746349 18.332269 18.004223 0.000000 0.000000 0.000000 -4.662827 0.036825 2.417607 2.906940 -0.319127 -2.996167 -2.954647 -11.952564 16.234763 0.000000 0.000000 0.000000 -1.063604 -0.120547 4.418455 4.246673 -0.371393 -25.457277 -1.041709 -0.576706 30.521729 0.834085 1.300412 -38.273419 0.000000 0.000000 0.000000 -31.534583 4.349745 -3.617844 -45.174950 -8.341454 -5.179687 -12.838161 -28.001116 4.915841 0.000000 0.000000 0.000000 20.987520 3.685134 -0.056973 52.326644 4.528271 -5.594078 6.071423 26.520503 2.362720 0.000000 0.000000 0.000000 
0.010797 0.949290 -0.011312 -0.306572 -3.484126 1.556904 5.539946 0.198211 5.111589 -5.445322 0.556414 -6.592951 8.369169 17.863828 17.620043 0.000000 0.000000 0.000000 -4.349815 0.013249 2.338416 2.324663 -0.275778 -2.564848 -3.397099 -12.581085 16.181526 0.000000 0.000000 0.000000 -1.239218 -0.125418 4.900520 4.267213 -0.350276 -25.706892 -1.096440 -1.354368 30.423752 0.148550 1.563852 -38.344885 0.000000 0.000000 0.000000 -31.414767 4.162276 -3.354286 -45.361644 -8.555265 -5.148619 -12.882368 -28.334439 5.011290 0.000000 0.000000 0.000000 21.188597 3.473728 -0.281035 52.140958 4.338041 -5.620016 6.029726 26.602398 2.345567 0.000000 0.000000 0.000000 
0.011126 0.948850 -0.011228 -0.298225 -2.998191 1.477558 5.758947 0.151749 4.524815 -5.770991 0.584073 -5.520039 8.208691 17.663606 17.108555 0.000000 0.000000 0.000000 -4.268884 0.012473 2.163740 2.226827 -0.259252 -1.952033 -3.698014 -12.993625 16.020599 0.000000 0.000000 0.000000 -1.189742 -0.139312 5.256367 4.452512 -0.390808 -25.649653 -1.271699 -1.268072 30.405461 -0.180719 1.781982 -38.557544 0.000000 0.000000 0.000000 -30.972243 3.819100 -3.237416 -45.468218 -8.543108 -5.108211 -13.220458 -29.324382 5.276413 0.000000 0.000000 0.000000 21.240486 3.616698 -0.075567 52.135561 4.216402 -5.696201 6.213426 26.806211 2.428807 0.000000 0.000000 0.000000 
0.011343 0.948628 -0.011192 -0.285966 -1.759776 1.252554 6.124749 0.081815 3.738142 -6.180316 0.621514 -4.016408 7.664778 16.964170 16.380554 0.000000 0.000000 0.000000 -4.335435 0.028593 1.674881 2.558804 -0.265251 -0.301443 -4.386352 -13.982644 15.959299 0.000000 0.000000 0.000000 -1.478065 -0.137150 5.700864 4.320631 -0.350438 -25.637264 -0.950817 -1.409139 30.606482 -1.206900 2.350512 -39.120982 0.000000 0.000000 0.000000 -30.204053 3.776529 -3.398075 -46.278125 -8.961299 -4.947178 -13.606618 -29.694091 5.438535 0.000000 0.000000 0.000000 21.141758 3.722759 0.213264 52.274292 4.173560 -5.797111 6.554653 27.636640 2.638750 0.000000 0.000000 0.000000 
0.011609 0.948129 -0.011033 -0.139567 -0.212770 0.969664 6.211351 0.018995 2.825917 -6.307784 0.644425 -2.251610 7.002968 16.085136 15.506802 0.000000 0.000000 0.000000 -4.577008 0.030362 1.472807 3.005109 -0.302491 1.047433 -5.210357 -15.179347 15.981998 0.000000 0.000000 0.000000 -1.852333 -0.131213 6.212765 4.218265 -0.323597 -25.443610 -0.563914 -1.311025 30.769920 -2.768342 3.192135 -39.269992 0.000000 0.000000 0.000000 -29.336698 3.569646 -3.612575 -46.477641 -9.101045 -4.783942 -14.853866 -30.241372 5.825160 0.000000 0.000000 0.000000 20.874653 4.195478 0.848413 52.713203 4.892292 -5.623287 6.406378 28.280769 2.746461 0.000000 0.000000 0.000000 
0.011740 0.946879 -0.010809 -0.073373 1.035721 0.441261 6.337545 -0.012226 2.484222 -6.401515 0.663560 -0.907657 6.492711 15.361684 14.561862 0.000000 0.000000 0.000000 -5.295496 0.057728 1.041983 4.391204 -0.476232 3.216230 -5.875048 -16.139010 15.774686 0.000000 0.000000 0.000000 -2.373478 -0.120916 6.965449 4.281484 -0.323779 -25.512537 0.180085 -0.569993 31.265437 -3.598140 3.778598 -39.495252 0.000000 0.000000 0.000000 -28.628211 3.513935 -4.086601 -47.184360 -9.124431 -4.702723 -15.409648 -30.391040 5.919685 0.000000 0.000000 0.000000 20.633598 5.287293 1.968253 52.420804 6.542807 -5.070597 6.971411 29.707684 3.146779 0.000000 0.000000 0.000000 
0.012006 0.944435 -0.010977 0.098664 2.150906 -0.058291 6.353721 -0.048145 1.774951 -6.558039 0.706117 1.040403 6.151716 14.802278 13.296857 0.000000 0.000000 0.000000 -5.893817 0.064098 0.793718 6.284086 -0.821620 6.510185 -6.939519 -17.682886 11.439232 0.000000 0.000000 0.000000 -2.995800 -0.104064 7.969608 4.025627 -0.254932 -25.451747 1.174093 0.744826 31.202893 -4.145375 4.307936 -39.104352 0.000000 0.000000 0.000000 -28.083775 3.379312 -4.721249 -46.994104 -8.226569 -4.790322 -15.553338 -30.332291 5.779961 0.000000 0.000000 0.000000 20.146425 6.570403 3.272164 52.657881 9.203066 -4.050492 5.652493 31.046135 3.090418 0.000000 0.000000 0.000000 
0.012519 0.938736 -0.012465 0.284924 2.941033 -1.304316 6.628967 -0.079670 0.841473 -7.274002 0.876561 4.826842 6.172511 14.592996 11.046722 0.000000 0.000000 0.000000 -6.870211 0.066718 0.415487 8.846036 -1.500897 11.109203 -8.013019 -19.685005 6.908489 0.000000 0.000000 0.000000 -3.386102 -0.122755 9.953826 3.995312 -0.226798 -25.770659 2.373209 2.670077 31.479790 -4.202464 4.687347 -39.302079 0.000000 0.000000 0.000000 -28.306215 2.500774 -5.120052 -46.443324 -7.941117 -4.601331 -14.257239 -30.006756 5.162960 0.000000 0.000000 0.000000 20.701758 9.008830 5.349729 50.420679 14.168885 -2.095898 3.751382 31.635457 2.708003 0.000000 0.000000 0.000000 
0.013976 0.928800 -0.015432 0.353834 3.598975 -2.454829 6.731599 -0.140407 -1.326737 -7.644040 1.066516 10.555924 6.628378 14.869457 7.647022 0.000000 0.000000 0.000000 -7.714880 0.082839 -0.758273 10.713219 -2.258456 15.735669 -9.017293 -21.898532 3.803851 0.000000 0.000000 0.000000 -3.925563 -0.123889 12.061365 4.117086 -0.285627 -25.223649 3.276206 5.070272 31.112933 -4.119388 5.040715 -39.748154 0.000000 0.000000 0.000000 -28.552865 1.526491 -5.663333 -45.514921 -7.882971 -4.154946 -12.767340 -29.133971 4.389025 0.000000 0.000000 0.000000 21.209189 12.252028 7.991336 47.149991 20.832390 0.366159 0.311258 30.990396 1.724705 0.000000 0.000000 0.000000 
0.016762 0.918516 -0.018668 0.512067 3.894590 -3.443191 6.520933 -0.199565 -3.439042 -7.906120 1.236931 15.973987 7.222283 15.460558 4.705098 0.000000 0.000000 0.000000 -8.720549 0.093039 -2.414462 12.082119 -3.004104 19.967503 -10.049790 -24.206811 2.589999 0.000000 0.000000 0.000000 -4.054494 -0.153425 14.025407 3.759423 -0.194611 -25.316566 4.081979 6.718584 31.338660 -3.610521 5.088710 -39.886776 0.000000 0.000000 0.000000 -29.226415 0.417130 -5.830860 -44.590227 -8.038797 -3.770990 -10.652133 -29.149410 3.717258 0.000000 0.000000 0.000000 21.251182 14.761661 9.907607 43.554097 26.272421 1.999070 -2.836186 30.659457 0.847276 0.000000 0.000000 0.000000 
